<?xml version="1.0" standalone="no"?>
<!DOCTYPE svg PUBLIC "-//W3C//DTD SVG 20010904//EN"
 "http://www.w3.org/TR/2001/REC-SVG-20010904/DTD/svg10.dtd">
<svg version="1.0" xmlns="http://www.w3.org/2000/svg"
 width="735.000000pt" height="613.000000pt" viewBox="0 0 735.000000 613.000000"
 preserveAspectRatio="xMidYMid meet">

<g transform="translate(0.000000,613.000000) scale(0.100000,-0.100000)"
fill="#000000" stroke="none">
<path d="M3315 5639 c-151 -57 -260 -107 -319 -147 -72 -49 -68 -50 -64 9 4
73 -17 76 -85 12 -105 -98 -116 -104 -209 -106 -70 -2 -90 -6 -129 -29 -56
-33 -101 -82 -134 -148 l-25 -49 -115 6 -114 6 -58 -44 c-32 -24 -146 -131
-254 -236 -197 -194 -206 -205 -245 -318 -15 -43 -44 -77 -199 -231 -187 -186
-221 -227 -272 -329 -60 -118 -87 -231 -147 -610 l-22 -140 63 -130 c69 -141
121 -292 148 -423 18 -92 13 -112 -31 -112 -23 0 -24 -3 -24 -75 0 -96 10
-125 158 -460 95 -216 192 -456 227 -562 3 -7 11 -13 19 -13 23 0 75 -67 81
-107 12 -68 36 -146 62 -198 77 -153 183 -215 365 -215 101 0 131 -10 206 -66
67 -51 130 -74 222 -81 68 -5 87 -11 206 -73 114 -59 192 -104 282 -161 18
-11 26 -11 42 -1 28 17 30 16 30 -26 l0 -39 53 8 c29 4 126 13 215 20 177 14
351 4 466 -27 46 -12 69 -13 99 -5 56 14 137 -3 219 -46 37 -19 82 -36 100
-36 30 -2 33 1 31 24 -1 20 5 30 24 38 25 11 178 51 197 51 5 0 30 -22 57 -50
27 -27 53 -50 59 -50 5 0 10 22 10 50 0 71 26 94 101 87 l55 -5 -4 29 c-2 16
-2 39 2 51 7 29 187 221 233 249 l35 22 39 -44 c27 -32 38 -39 39 -26 0 29
-25 80 -54 106 -40 38 -34 55 27 74 61 19 91 21 116 7 15 -8 17 -6 14 15 -6
31 38 55 104 55 26 0 56 6 65 14 19 14 38 57 38 87 0 11 38 66 84 122 168 204
296 427 406 708 11 27 17 49 14 49 -14 0 -131 -121 -166 -173 -36 -53 -49 -62
-89 -58 -11 1 -20 -13 -30 -46 l-14 -48 -5 38 -5 38 -165 -127 c-400 -306
-780 -569 -838 -580 -28 -5 -38 -2 -60 19 l-25 26 -43 -31 c-46 -33 -64 -31
-64 8 0 22 -4 24 -45 24 -39 0 -47 -4 -57 -25 -13 -28 -26 -32 -34 -10 -10 25
-24 17 -24 -12 0 -16 -5 -35 -10 -43 -8 -13 -10 -12 -10 3 0 24 -16 21 -37 -6
l-17 -24 -31 41 -30 41 -3 -33 c-3 -28 -6 -31 -18 -21 -12 9 -14 6 -14 -20 0
-24 -9 -40 -36 -64 -54 -47 -71 -54 -161 -61 -45 -4 -116 -15 -158 -25 -73
-18 -77 -18 -153 1 -118 28 -354 66 -484 78 -204 18 -328 53 -464 131 l-54 31
30 28 c33 31 45 76 13 48 -10 -8 -40 -20 -66 -27 l-48 -12 -262 244 c-144 134
-339 323 -433 419 -189 195 -205 219 -304 460 -29 71 -55 128 -59 128 -3 0
-13 -4 -20 -9 -33 -21 -77 40 -64 88 6 22 36 36 54 25 9 -5 11 3 7 27 -3 19
-16 108 -29 199 l-22 165 35 80 c35 78 37 88 72 410 36 327 61 468 106 585 64
165 185 350 332 505 126 134 385 367 456 411 429 265 632 363 847 409 79 17
332 38 346 29 6 -3 38 -3 71 1 87 10 108 33 108 120 0 65 0 65 -29 65 -18 0
-46 14 -78 40 -81 64 -81 64 -228 9z m-2018 -3330 c18 -62 12 -66 -26 -19 -27
34 -30 44 -20 56 19 23 32 12 46 -37z m101 -49 c26 -55 46 -100 44 -100 -2 0
-17 8 -33 17 -20 12 -33 30 -40 58 -6 22 -19 59 -30 83 -16 36 -16 42 -4 42 9
0 34 -39 63 -100z"/>
<path d="M4136 5487 c-27 -28 -36 -33 -56 -25 -13 5 -56 6 -96 2 -62 -6 -77
-11 -99 -34 -53 -55 -28 -137 58 -196 66 -45 146 -73 247 -86 75 -9 96 -17
176 -64 135 -79 365 -233 606 -407 118 -85 225 -160 236 -166 24 -13 60 -7
114 20 21 11 42 19 48 19 6 0 10 -25 10 -61 0 -41 10 -90 31 -153 37 -111 69
-168 112 -197 101 -69 135 -138 122 -243 -5 -34 -8 -74 -8 -91 0 -48 72 -164
149 -242 55 -56 73 -81 77 -110 9 -54 27 -69 58 -45 l24 20 -14 -132 c-9 -86
-11 -149 -5 -182 l8 -49 3 40 c11 136 57 377 88 458 12 29 -18 10 -43 -28 -42
-65 -48 -50 -55 128 -4 89 -17 245 -31 347 l-24 185 -258 415 c-249 400 -262
419 -359 515 -154 154 -329 260 -553 335 -140 47 -226 60 -389 60 l-146 0 -31
-33z"/>
</g>
</svg>
