<?xml version="1.0" standalone="no"?>
<!DOCTYPE svg PUBLIC "-//W3C//DTD SVG 20010904//EN"
 "http://www.w3.org/TR/2001/REC-SVG-20010904/DTD/svg10.dtd">
<svg version="1.0" xmlns="http://www.w3.org/2000/svg"
 width="600.000000pt" height="308.000000pt" viewBox="0 0 600.000000 308.000000"
 preserveAspectRatio="xMidYMid meet">

<g transform="translate(0.000000,308.000000) scale(0.100000,-0.100000)"
fill="#000000" stroke="none">
<path d="M1280 2650 c-107 -26 -289 -69 -405 -95 -353 -80 -564 -131 -571
-137 -6 -7 122 -48 149 -48 16 0 141 29 719 169 l328 79 207 -54 c317 -83 495
-129 640 -165 l133 -33 90 29 89 30 -67 18 c-61 16 -491 118 -916 217 -94 22
-177 40 -185 39 -9 0 -104 -22 -211 -49z"/>
<path d="M3166 2563 c-3 -16 -15 -82 -26 -148 -12 -66 -28 -151 -35 -190 -18
-86 -75 -400 -75 -409 0 -3 45 -6 99 -6 l99 0 7 48 c10 72 12 73 96 70 l74 -3
10 -55 10 -55 103 -3 c81 -2 102 0 102 11 0 13 -125 701 -135 745 -5 22 -8 22
-164 22 l-159 0 -6 -27z m188 -325 c9 -62 19 -123 22 -135 4 -21 1 -23 -46
-23 -56 0 -55 -2 -41 81 5 30 14 87 21 127 6 39 15 70 20 67 4 -2 15 -55 24
-117z"/>
<path d="M1425 2434 c-42 -15 -230 -63 -375 -95 -47 -11 -128 -32 -180 -48
l-95 -29 60 -17 c54 -15 120 -35 415 -125 52 -16 130 -39 173 -51 l78 -22 152
48 c227 71 497 166 497 175 0 8 -54 24 -370 110 -251 68 -297 75 -355 54z"/>
<path d="M3952 2420 c-18 -4 -42 -16 -53 -26 -19 -17 -21 -18 -30 -1 -8 14
-25 17 -94 17 l-85 0 0 -385 0 -385 105 0 105 0 0 91 c0 83 2 90 18 83 30 -14
124 -16 163 -5 76 23 115 106 126 266 6 104 -16 245 -45 285 -40 55 -126 80
-210 60z m29 -186 c16 -20 25 -185 12 -234 -10 -37 -32 -47 -79 -36 -23 6 -23
8 -22 134 0 70 5 133 11 140 14 17 62 15 78 -4z"/>
<path d="M4536 2420 c-15 -5 -37 -17 -48 -27 -19 -17 -20 -17 -29 0 -8 14 -25
17 -94 17 l-85 0 0 -385 0 -385 105 0 105 0 0 91 c0 83 2 90 18 83 9 -4 49
-10 87 -12 60 -3 75 0 105 20 19 13 45 41 57 63 57 101 57 365 0 467 -36 65
-132 94 -221 68z m41 -200 c16 -31 17 -186 2 -229 -10 -29 -15 -32 -48 -29
l-36 3 -5 130 c-4 108 -2 132 10 143 23 20 63 10 77 -18z"/>
<path d="M2710 2344 c-41 -13 -100 -32 -130 -43 l-55 -18 -5 -651 c-3 -358 -8
-653 -12 -657 -3 -4 -48 -26 -100 -49 -51 -24 -147 -68 -213 -99 -66 -30 -237
-109 -380 -174 l-260 -119 -3 -172 c-1 -95 0 -172 3 -172 11 0 406 179 870
395 121 56 255 117 298 135 l77 34 0 808 c0 444 -3 808 -7 807 -5 0 -42 -11
-83 -25z"/>
<path d="M190 1552 l0 -798 218 -99 c119 -54 332 -149 472 -212 140 -63 324
-145 408 -184 85 -38 158 -69 163 -69 5 0 9 75 9 168 l0 169 -132 56 c-73 32
-137 57 -141 57 -5 0 -32 11 -60 24 -29 13 -77 33 -107 46 -30 12 -73 31 -95
40 -22 10 -74 33 -115 50 -41 18 -102 45 -135 61 -33 15 -105 47 -160 71
l-100 44 -6 539 c-3 297 -7 592 -8 655 l-1 116 -98 32 c-54 18 -101 32 -105
32 -4 0 -7 -359 -7 -798z"/>
<path d="M655 2138 c-3 -35 -5 -276 -3 -537 l3 -473 155 -65 c85 -35 247 -102
360 -148 113 -46 222 -91 242 -99 20 -9 39 -12 42 -8 3 5 4 266 3 581 l-2 574
-135 39 c-74 21 -178 52 -230 67 -52 16 -122 36 -155 46 -33 9 -69 21 -80 26
-16 7 -183 59 -191 59 -1 0 -5 -28 -9 -62z"/>
<path d="M1900 2081 l-345 -119 -3 -576 c-1 -323 2 -576 7 -576 10 0 242 100
524 225 l197 87 0 373 c0 450 -9 705 -24 704 -6 0 -166 -53 -356 -118z"/>
<path d="M3045 1513 c3 -21 19 -171 36 -333 16 -162 33 -315 37 -340 l7 -45
114 -3 c63 -1 118 1 123 6 4 4 20 81 35 170 15 89 30 162 34 162 3 0 21 -75
40 -167 l34 -168 121 -3 122 -3 6 53 c3 29 17 177 31 328 13 151 27 299 30
328 l6 52 -94 0 -94 0 -7 -100 c-3 -55 -9 -145 -12 -200 -4 -55 -10 -100 -14
-100 -4 0 -20 90 -35 200 l-28 201 -101 -3 -101 -3 -24 -195 c-24 -194 -26
-208 -36 -198 -5 4 -35 326 -35 376 0 21 -3 22 -100 22 l-100 0 5 -37z"/>
<path d="M3994 1376 c-112 -21 -117 -24 -111 -56 3 -15 9 -51 13 -79 4 -29 12
-55 19 -57 6 -3 38 2 70 11 89 23 123 20 137 -10 15 -33 7 -39 -72 -54 -139
-26 -184 -70 -184 -176 0 -70 30 -134 72 -156 14 -8 51 -14 82 -14 47 1 64 6
95 29 l37 28 26 -25 c31 -29 86 -42 136 -33 33 6 34 7 41 73 5 47 4 68 -4 71
-35 12 -38 29 -34 189 5 174 -2 205 -59 247 -35 25 -162 31 -264 12z m141
-376 c14 -62 -46 -106 -79 -59 -18 27 -8 59 25 76 37 19 47 16 54 -17z"/>
<path d="M4675 1383 c-11 -3 -31 -14 -45 -25 -22 -17 -25 -18 -28 -4 -3 13
-19 16 -93 16 l-89 0 0 -290 0 -290 94 0 94 0 4 185 c4 212 5 215 87 223 l51
5 0 41 c0 22 3 65 6 94 l7 52 -34 -1 c-19 -1 -43 -4 -54 -6z"/>
<path d="M4926 1375 c-58 -21 -88 -46 -113 -95 -38 -73 -25 -181 28 -239 16
-18 29 -34 29 -36 0 -3 -14 -12 -31 -20 -42 -22 -64 -75 -49 -121 6 -19 21
-41 33 -49 l21 -15 -22 -23 c-33 -35 -30 -89 8 -121 36 -30 95 -41 211 -40 74
0 95 5 144 29 46 22 61 36 76 69 33 73 19 170 -28 192 -10 4 -74 10 -143 13
-104 5 -125 9 -128 22 -2 13 11 17 78 23 97 8 125 18 167 58 53 52 69 174 26
209 -14 12 -11 15 28 19 l44 5 3 68 3 67 -173 0 c-122 -1 -185 -5 -212 -15z
m146 -180 c19 -71 -22 -136 -63 -99 -22 20 -27 102 -7 122 23 23 61 10 70 -23z
m48 -435 c0 -18 -7 -20 -85 -20 -78 0 -85 2 -85 20 0 18 7 20 85 20 78 0 85
-2 85 -20z"/>
<path d="M5465 1375 c-38 -7 -77 -14 -85 -14 -36 -3 -38 -14 -24 -95 7 -43 15
-80 17 -82 1 -2 44 4 94 13 102 18 123 12 123 -33 0 -19 -5 -24 -27 -24 -16 0
-50 -6 -78 -14 -116 -31 -155 -73 -155 -169 0 -70 27 -129 73 -158 39 -25 124
-21 164 8 14 10 32 23 40 28 10 7 17 5 25 -8 20 -36 130 -62 164 -39 9 6 39
134 31 136 -1 1 -11 6 -22 12 -19 10 -20 24 -25 190 -5 195 -10 213 -63 241
-42 22 -163 26 -252 8z m135 -384 c0 -43 -20 -71 -49 -71 -47 0 -55 75 -11 97
46 23 60 17 60 -26z"/>
</g>
</svg>
